<svg id="Layer_1" data-name="Layer 1" xmlns="http://www.w3.org/2000/svg" width="87" height="87" viewBox="0 0 87 87"><defs><style>.cls-1{fill:#037e8b;}.cls-2{fill:#fff;}</style></defs><path class="cls-1" d="M61.10479,66.00664s-1.91625,1.34077-3.12652.51569c0,0-1.88907,6.91006-14.40874,7.3226-11.82413.38964-17.069.87125-26.53638,6.83163A23.22319,23.22319,0,0,0,13.899,83.059l-2.71769,2.44021s-3.93337,3.816-5.84962-.72193L.79551,76.95508a5.57907,5.57907,0,0,1-.70359-3.83642,4.64835,4.64835,0,0,1,2.40719-3.29382,6.624,6.624,0,0,0,.78221-.48733L8.66,65.28469l9.68212-7.32262s10.37411-8.1459,16.38708-5.82922a8.06052,8.06052,0,0,0,2.70772.48919,17.23971,17.23971,0,0,0,8.237-1.67318c2.22181-1.09818,3.09617-2.202,5.62269-3.30034A18.51158,18.51158,0,0,1,59.592,46.20463a2.63867,2.63867,0,0,1,2.919,1.34831,2.764,2.764,0,0,1-.39758,3.1123c-2.52779,2.081-4.7793,3.75359-6.58082,5.02786-1.153.81556-2.76577,1.95221-4.99235,3.32611-2.54336,1.56939-4.53534,2.6139-5.9,3.32613-2.0555,1.07273-4.65744,2.34708-7.74066,3.6613a53.83816,53.83816,0,0,0,5.78659-1.81776,71.65241,71.65241,0,0,0,14.1828-7.46443Z" transform="translate(0)"/><path class="cls-1" d="M37.60547,11.03543,52.406,45.58582a13.36085,13.36085,0,0,0-3.95857,1.62438L35.08409,17.01729S33.16783,12.47933,37.60547,11.03543Z" transform="translate(0)"/><path class="cls-1" d="M41.13541,9.179,60.49966.825s3.22738-2.37212,5.04278.92822C67.22225,4.80708,83.323,42.2115,85.71865,47.78179c.15907.36987.33636.73049.51982,1.08836.5487,1.07029,1.74468,4.07548-.82089,6.13013a5.53834,5.53834,0,0,1-1.22715.7151l-19.45484,8.6411-4.43764-9.901s6.22839-3.816,3.76976-8.25084L60.7518,38.289s-1.39937-.61881-1.55065.46411l2.534,6.03343s-1.2859-.61882-1.85322-.27073A24.15409,24.15409,0,0,1,56.62934,45.56Z" transform="translate(0)"/><path class="cls-2" d="M51.33261,17.78309l-.67539.316a.533.533,0,0,1-.71086-.27053l-3.458-7.72847a.55529.55529,0,0,1,.26455-.72693l.67539-.316a.533.533,0,0,1,.71086.27053l3.458,7.72847A.55531.55531,0,0,1,51.33261,17.78309Z" transform="translate(0)"/><path class="cls-2" d="M55.71507,27.57757l-.67539.316a.533.533,0,0,1-.71086-.27053l-3.458-7.72847a.5553.5553,0,0,1,.26455-.72693l.67539-.316a.53305.53305,0,0,1,.71086.27054l3.458,7.72847A.55528.55528,0,0,1,55.71507,27.57757Z" transform="translate(0)"/><path class="cls-2" d="M59.728,37.37206l-.67539.316a.533.533,0,0,1-.71086-.27053l-3.458-7.72847a.55529.55529,0,0,1,.26455-.72693l.67539-.316a.533.533,0,0,1,.71086.27054l3.458,7.72846A.5553.5553,0,0,1,59.728,37.37206Z" transform="translate(0)"/><ellipse class="cls-2" cx="74.93393" cy="45.33817" rx="3.80729" ry="3.89336"/><path class="cls-2" d="M76.40961,39.68155a3.715,3.715,0,0,1-.28781,1.4421,4.14823,4.14823,0,0,0-1.53309-.29083,4.00593,4.00593,0,0,0-3.72946,2.4479,3.8778,3.8778,0,0,1-2.49045-3.59917,4.02239,4.02239,0,0,1,8.04081,0Z" transform="translate(0)"/></svg>